<?xml version="1.0" encoding="utf-8"?>
<!-- Generator: Adobe Illustrator 12.0.0, SVG Export Plug-In . SVG Version: 6.00 Build 51448)  -->
<!DOCTYPE svg PUBLIC "-//W3C//DTD SVG 1.1//EN" "http://www.w3.org/Graphics/SVG/1.1/DTD/svg11.dtd" [
	<!ENTITY ns_svg "http://www.w3.org/2000/svg">
	<!ENTITY ns_xlink "http://www.w3.org/1999/xlink">
]>
<svg  version="1.1" id="Layer_1" xmlns="&ns_svg;" xmlns:xlink="&ns_xlink;" width="266.582" height="105.008"
	 viewBox="0 0 266.582 105.008" overflow="visible" enable-background="new 0 0 266.582 105.008" xml:space="preserve">
<g>
	<text transform="matrix(1 0 0 1 103.1089 41.7271)" font-family="'Calibri-Bold'" font-size="11.1904">Lock</text>
	<text transform="matrix(1 0 0 1 149.7061 41.9155)"><tspan x="0" y="0" font-family="'Calibri-Bold'" font-size="11.1904">P</tspan><tspan x="5.789" y="0" font-family="'Calibri-Bold'" font-size="11.1904">o</tspan><tspan x="11.805" y="0" font-family="'Calibri-Bold'" font-size="11.1904">w</tspan><tspan x="20.042" y="0" font-family="'Calibri-Bold'" font-size="11.1904">er</tspan></text>
	<text transform="matrix(1 0 0 1 208.0166 56.9722)"><tspan x="0" y="0" font-family="'Calibri-Bold'" font-size="11.1904">24</tspan><tspan x="11.343" y="0" font-family="'Calibri-Bold'" font-size="11.1904">V</tspan><tspan x="17.132" y="0" font-family="'Calibri-Bold'" font-size="11.1904">, 1.</tspan><tspan x="31.207" y="0" font-family="'Calibri-Bold'" font-size="11.1904">7</tspan><tspan x="36.901" y="0" font-family="'Calibri-Bold'" font-size="11.1904">A</tspan></text>
	<text transform="matrix(1 0 0 1 95.7271 70.5864)"><tspan x="0" y="0" font-family="'Calibri'" font-size="11.1904">Rubidium S</tspan><tspan x="51.34" y="0" font-family="'Calibri'" font-size="11.1904">t</tspan><tspan x="54.989" y="0" font-family="'Calibri'" font-size="11.1904">anda</tspan><tspan x="77.467" y="0" font-family="'Calibri'" font-size="11.1904">r</tspan><tspan x="81.223" y="0" font-family="'Calibri'" font-size="11.1904">d</tspan></text>
	<circle fill="none" stroke="#FF0000" stroke-width="0.125" stroke-linecap="round" cx="164.842" cy="22.991" r="6.874"/>
	
		<line fill="none" stroke="#FF0000" stroke-width="0.125" stroke-linecap="round" x1="225.901" y1="36.809" x2="234.175" y2="36.809"/>
	<path fill="none" stroke="#FF0000" stroke-width="0.125" stroke-linecap="round" d="M225.901,17.534
		c-8.469,3.635-8.469,15.642,0,19.275"/>
	
		<line fill="none" stroke="#FF0000" stroke-width="0.125" stroke-linecap="round" x1="234.175" y1="17.534" x2="225.901" y2="17.534"/>
	<path fill="none" stroke="#FF0000" stroke-width="0.125" stroke-linecap="round" d="M234.175,36.809
		c8.471-3.633,8.471-15.64,0-19.275"/>
	<circle fill="none" stroke="#FF0000" stroke-width="0.125" stroke-linecap="round" cx="181.17" cy="86.771" r="3.968"/>
	<g>
		<text transform="matrix(1 0 0 1 31.2437 89.7544)"><tspan x="0" y="0" font-family="'Calibri-Bold'" font-size="11.1904">10 </tspan><tspan x="13.873" y="0" font-family="'Calibri-Bold'" font-size="11.1904">M</tspan><tspan x="23.676" y="0" font-family="'Calibri-Bold'" font-size="11.1904">Hz</tspan></text>
		
			<line fill="none" stroke="#FF0000" stroke-width="0.125" stroke-linecap="round" x1="252.346" y1="0.063" x2="14.236" y2="0.063"/>
		<path fill="none" stroke="#FF0000" stroke-width="0.125" stroke-linecap="round" d="M14.236,0.063
			c-7.826,0-14.174,6.346-14.174,14.174"/>
		<line fill="none" stroke="#FF0000" stroke-width="0.125" stroke-linecap="round" x1="0.063" y1="14.236" x2="0.063" y2="90.772"/>
		<path fill="none" stroke="#FF0000" stroke-width="0.125" stroke-linecap="round" d="M0.063,90.772
			c0,7.828,6.348,14.174,14.174,14.174"/>
		
			<line fill="none" stroke="#FF0000" stroke-width="0.125" stroke-linecap="round" x1="14.236" y1="104.946" x2="252.346" y2="104.946"/>
		<path fill="none" stroke="#FF0000" stroke-width="0.125" stroke-linecap="round" d="M252.346,104.946
			c7.828,0,14.174-6.346,14.174-14.174"/>
		
			<line fill="none" stroke="#FF0000" stroke-width="0.125" stroke-linecap="round" x1="266.52" y1="90.772" x2="266.52" y2="14.236"/>
		<path fill="none" stroke="#FF0000" stroke-width="0.125" stroke-linecap="round" d="M266.52,14.236
			c0-7.828-6.346-14.174-14.174-14.174"/>
	</g>
	<circle fill="none" stroke="#FF0000" stroke-width="0.125" stroke-linecap="round" cx="110.304" cy="86.771" r="3.969"/>
	
		<line fill="none" stroke="#FF0000" stroke-width="0.125" stroke-linecap="round" x1="225.901" y1="90.81" x2="234.175" y2="90.81"/>
	<path fill="none" stroke="#FF0000" stroke-width="0.125" stroke-linecap="round" d="M225.901,71.535
		c-8.469,3.636-8.469,15.64,0,19.275"/>
	
		<line fill="none" stroke="#FF0000" stroke-width="0.125" stroke-linecap="round" x1="234.175" y1="71.535" x2="225.901" y2="71.535"/>
	<path fill="none" stroke="#FF0000" stroke-width="0.125" stroke-linecap="round" d="M234.175,90.81
		c8.471-3.636,8.471-15.64,0-19.275"/>
	
		<line fill="none" stroke="#FF0000" stroke-width="0.125" stroke-linecap="round" x1="57.742" y1="39.149" x2="39.503" y2="39.149"/>
	<path fill="none" stroke="#FF0000" stroke-width="0.125" stroke-linecap="round" d="M39.503,39.149
		c-6.739,4.089-9.93,12.166-7.807,19.758c2.125,7.59,9.043,12.838,16.925,12.838s14.801-5.248,16.926-12.838
		c2.122-7.592-1.067-15.668-7.806-19.758"/>
	<circle fill="none" stroke="#FF0000" stroke-width="0.125" stroke-linecap="round" cx="113.819" cy="22.991" r="6.874"/>
</g>
<g>
	<line fill="none" stroke="#000000" stroke-width="0.5" x1="250.117" y1="4.315" x2="16.465" y2="4.315"/>
	<path fill="none" stroke="#000000" stroke-width="0.5" d="M16.465,4.315c-6.708,0-12.15,5.44-12.15,12.15"/>
	<line fill="none" stroke="#000000" stroke-width="0.5" x1="4.314" y1="16.465" x2="4.314" y2="88.542"/>
	<path fill="none" stroke="#000000" stroke-width="0.5" d="M4.314,88.542c0,6.71,5.442,12.15,12.15,12.15"/>
	<line fill="none" stroke="#000000" stroke-width="0.5" x1="16.465" y1="100.693" x2="250.117" y2="100.693"/>
	<path fill="none" stroke="#000000" stroke-width="0.5" d="M250.117,100.693c6.71,0,12.15-5.44,12.15-12.15"/>
	<line fill="none" stroke="#000000" stroke-width="0.5" x1="262.268" y1="88.542" x2="262.268" y2="16.465"/>
	<path fill="none" stroke="#000000" stroke-width="0.5" d="M262.268,16.465c0-6.71-5.44-12.15-12.15-12.15"/>
</g>
</svg>
